# xmcd
#
# Track frame offsets: 
#        150
#        11623
#        24867
#        36274
#        46340
#        57074
#        69209
#        82024
#        93862
#        109753
#        119991
#        131360
#        144750
#        155610
#        166047
#        178491
#        190750
#        214125
#
# Disc length: 3049 seconds
#
# Revision: 2
# Processed by: cddbd v1.5.2PL0 Copyright (c) Steve Scherf et al.
# Submitted via: ExactAudioCopyFreeDBPlugin 1.0
#
DISCID=ed0be712
DTITLE=Various Artist - Keep the Faith:  The Northern Soul Generation
DYEAR=2003
DGENRE=Soul
TTITLE0=Frank Wilson - Do I Love You (Indeed I Do)
TTITLE1=The Professionals - That's Why I Love You
TTITLE2=Candy and The Kisses - The 81
TTITLE3=Rose Batiste - Hit and Run
TTITLE4=Just Brothers - Sliced Tomatoes
TTITLE5=Edwin Starr - Agent Double O Soul
TTITLE6=Father's Angels - Bok to Bach
TTITLE7=The Showstoppers - Ain't Nothing But a Houseparty
TTITLE8=The Devonnes - I'm Gonna Pick Up My Toys (And Go Home)
TTITLE9=The Sapphires - Gotta Have Your Love
TTITLE10=The Olympics - I'll Do a Little Bit More
TTITLE11=P.P. Arnold - Everything is Gonna Be Alright
TTITLE12=The Yum Yums - Gonna Be a Big Thing
TTITLE13=The Holidays - Making Up Time
TTITLE14=Frankie Crocker - Ton of Dynamite
TTITLE15=Otis Smith - Let Her Go
TTITLE16=Benny Troy - I Wanna Give You Tomorrow
TTITLE17=Chuck Jackson - Love Lights
EXTD=
EXTT0=
EXTT1=
EXTT2=
EXTT3=
EXTT4=
EXTT5=
EXTT6=
EXTT7=
EXTT8=
EXTT9=
EXTT10=
EXTT11=
EXTT12=
EXTT13=
EXTT14=
EXTT15=
EXTT16=
EXTT17=
PLAYORDER=
